# MagicaVoxel @ Ephtracy

# group
o 

# material
mtllib OfficeLamp.mtl
usemtl palette

# normals
vn -1 0 0
vn 1 0 0
vn 0 0 1
vn 0 0 -1
vn 0 -1 0
vn 0 1 0

# texcoords
vt 0.958984 0.5
vt 0.962891 0.5
vt 0.974609 0.5
vt 0.978516 0.5

# verts
v -2 0.2 1
v -2 0.2 -1
v -2 0.3 1
v -2 0.3 -1
v -1.9 0.1 0.9
v -1.9 0.1 -0.9
v -1.9 0.2 0.9
v -1.9 0.2 -0.9
v -1.7 0.1 0.7
v -1.7 0.1 0.6
v -1.7 0.1 0.4
v -1.7 0.1 0.3
v -1.7 0.1 0.2
v -1.7 0.1 0.1
v -1.7 0.1 -0.1
v -1.7 0.1 -0.2
v -1.7 0.1 -0.3
v -1.7 0.1 -0.4
v -1.7 0.1 -0.6
v -1.7 0.1 -0.7
v -1.7 0.2 0.7
v -1.7 0.2 0.6
v -1.7 0.2 0.4
v -1.7 0.2 0.3
v -1.7 0.2 0.2
v -1.7 0.2 0.1
v -1.7 0.2 -0.1
v -1.7 0.2 -0.2
v -1.7 0.2 -0.3
v -1.7 0.2 -0.4
v -1.7 0.2 -0.6
v -1.7 0.2 -0.7
v -1.6 0 0.6
v -1.6 0 0.4
v -1.6 0 0.1
v -1.6 0 -0.1
v -1.6 0 -0.4
v -1.6 0 -0.6
v -1.6 0.1 0.6
v -1.6 0.1 0.4
v -1.6 0.1 0.1
v -1.6 0.1 -0.1
v -1.6 0.1 -0.4
v -1.6 0.1 -0.6
v 1.8 0.1 0.8
v 1.8 0.1 0.6
v 1.8 0.1 0.4
v 1.8 0.1 0.1
v 1.8 0.1 -0.1
v 1.8 0.1 -0.4
v 1.8 0.1 -0.6
v 1.8 0.1 -0.8
v 1.8 0.2 0.8
v 1.8 0.2 0.6
v 1.8 0.2 0.4
v 1.8 0.2 0.1
v 1.8 0.2 -0.1
v 1.8 0.2 -0.4
v 1.8 0.2 -0.6
v 1.8 0.2 -0.8
v -1.8 0.1 0.8
v -1.8 0.1 0.6
v -1.8 0.1 0.4
v -1.8 0.1 0.1
v -1.8 0.1 -0.1
v -1.8 0.1 -0.4
v -1.8 0.1 -0.6
v -1.8 0.1 -0.8
v -1.8 0.2 0.8
v -1.8 0.2 0.6
v -1.8 0.2 0.4
v -1.8 0.2 0.1
v -1.8 0.2 -0.1
v -1.8 0.2 -0.4
v -1.8 0.2 -0.6
v -1.8 0.2 -0.8
v 1.6 0 0.6
v 1.6 0 0.4
v 1.6 0 0.1
v 1.6 0 -0.1
v 1.6 0 -0.4
v 1.6 0 -0.6
v 1.6 0.1 0.6
v 1.6 0.1 0.4
v 1.6 0.1 0.1
v 1.6 0.1 -0.1
v 1.6 0.1 -0.4
v 1.6 0.1 -0.6
v 1.7 0.1 0.7
v 1.7 0.1 0.6
v 1.7 0.1 0.4
v 1.7 0.1 0.3
v 1.7 0.1 0.2
v 1.7 0.1 0.1
v 1.7 0.1 -0.1
v 1.7 0.1 -0.2
v 1.7 0.1 -0.3
v 1.7 0.1 -0.4
v 1.7 0.1 -0.6
v 1.7 0.1 -0.7
v 1.7 0.2 0.7
v 1.7 0.2 0.6
v 1.7 0.2 0.4
v 1.7 0.2 0.3
v 1.7 0.2 0.2
v 1.7 0.2 0.1
v 1.7 0.2 -0.1
v 1.7 0.2 -0.2
v 1.7 0.2 -0.3
v 1.7 0.2 -0.4
v 1.7 0.2 -0.6
v 1.7 0.2 -0.7
v 1.9 0.1 0.9
v 1.9 0.1 -0.9
v 1.9 0.2 0.9
v 1.9 0.2 -0.9
v 2 0.2 1
v 2 0.2 -1
v 2 0.3 1
v 2 0.3 -1
v -2 0.2 1
v -2 0.3 1
v 2 0.2 1
v 2 0.3 1
v -1.9 0.1 0.9
v -1.9 0.2 0.9
v 1.9 0.1 0.9
v 1.9 0.2 0.9
v -1.7 0.1 0.7
v -1.7 0.2 0.7
v -1.6 0.1 0.7
v -1.6 0.2 0.7
v 1.6 0.1 0.7
v 1.6 0.2 0.7
v 1.7 0.1 0.7
v 1.7 0.2 0.7
v -1.8 0.1 0.6
v -1.8 0.2 0.6
v -1.7 0.1 0.6
v -1.7 0.2 0.6
v -1.6 0 0.6
v -1.6 0.1 0.6
v 1.6 0 0.6
v 1.6 0.1 0.6
v 1.7 0.1 0.6
v 1.7 0.2 0.6
v 1.8 0.1 0.6
v 1.8 0.2 0.6
v -1.7 0.1 0.2
v -1.7 0.2 0.2
v -1.6 0.1 0.2
v -1.6 0.2 0.2
v 1.6 0.1 0.2
v 1.6 0.2 0.2
v 1.7 0.1 0.2
v 1.7 0.2 0.2
v -1.8 0.1 0.1
v -1.8 0.2 0.1
v -1.7 0.1 0.1
v -1.7 0.2 0.1
v -1.6 0 0.1
v -1.6 0.1 0.1
v 1.6 0 0.1
v 1.6 0.1 0.1
v 1.7 0.1 0.1
v 1.7 0.2 0.1
v 1.8 0.1 0.1
v 1.8 0.2 0.1
v -1.7 0.1 -0.3
v -1.7 0.2 -0.3
v -1.6 0.1 -0.3
v -1.6 0.2 -0.3
v 1.6 0.1 -0.3
v 1.6 0.2 -0.3
v 1.7 0.1 -0.3
v 1.7 0.2 -0.3
v -1.8 0.1 -0.4
v -1.8 0.2 -0.4
v -1.7 0.1 -0.4
v -1.7 0.2 -0.4
v -1.6 0 -0.4
v -1.6 0.1 -0.4
v 1.6 0 -0.4
v 1.6 0.1 -0.4
v 1.7 0.1 -0.4
v 1.7 0.2 -0.4
v 1.8 0.1 -0.4
v 1.8 0.2 -0.4
v -1.8 0.1 -0.8
v -1.8 0.2 -0.8
v 1.8 0.1 -0.8
v 1.8 0.2 -0.8
v -1.8 0.1 0.8
v -1.8 0.2 0.8
v 1.8 0.1 0.8
v 1.8 0.2 0.8
v -1.8 0.1 0.4
v -1.8 0.2 0.4
v -1.7 0.1 0.4
v -1.7 0.2 0.4
v -1.6 0 0.4
v -1.6 0.1 0.4
v 1.6 0 0.4
v 1.6 0.1 0.4
v 1.7 0.1 0.4
v 1.7 0.2 0.4
v 1.8 0.1 0.4
v 1.8 0.2 0.4
v -1.7 0.1 0.3
v -1.7 0.2 0.3
v -1.6 0.1 0.3
v -1.6 0.2 0.3
v 1.6 0.1 0.3
v 1.6 0.2 0.3
v 1.7 0.1 0.3
v 1.7 0.2 0.3
v -1.8 0.1 -0.1
v -1.8 0.2 -0.1
v -1.7 0.1 -0.1
v -1.7 0.2 -0.1
v -1.6 0 -0.1
v -1.6 0.1 -0.1
v 1.6 0 -0.1
v 1.6 0.1 -0.1
v 1.7 0.1 -0.1
v 1.7 0.2 -0.1
v 1.8 0.1 -0.1
v 1.8 0.2 -0.1
v -1.7 0.1 -0.2
v -1.7 0.2 -0.2
v -1.6 0.1 -0.2
v -1.6 0.2 -0.2
v 1.6 0.1 -0.2
v 1.6 0.2 -0.2
v 1.7 0.1 -0.2
v 1.7 0.2 -0.2
v -1.8 0.1 -0.6
v -1.8 0.2 -0.6
v -1.7 0.1 -0.6
v -1.7 0.2 -0.6
v -1.6 0 -0.6
v -1.6 0.1 -0.6
v 1.6 0 -0.6
v 1.6 0.1 -0.6
v 1.7 0.1 -0.6
v 1.7 0.2 -0.6
v 1.8 0.1 -0.6
v 1.8 0.2 -0.6
v -1.7 0.1 -0.7
v -1.7 0.2 -0.7
v -1.6 0.1 -0.7
v -1.6 0.2 -0.7
v 1.6 0.1 -0.7
v 1.6 0.2 -0.7
v 1.7 0.1 -0.7
v 1.7 0.2 -0.7
v -1.9 0.1 -0.9
v -1.9 0.2 -0.9
v 1.9 0.1 -0.9
v 1.9 0.2 -0.9
v -2 0.2 -1
v -2 0.3 -1
v 2 0.2 -1
v 2 0.3 -1
v -1.6 0 0.6
v 1.6 0 0.6
v -1.6 0 0.4
v 1.6 0 0.4
v -1.6 0 0.1
v 1.6 0 0.1
v -1.6 0 -0.1
v 1.6 0 -0.1
v -1.6 0 -0.4
v 1.6 0 -0.4
v -1.6 0 -0.6
v 1.6 0 -0.6
v -1.9 0.1 0.9
v 1.9 0.1 0.9
v -1.8 0.1 0.8
v 1.8 0.1 0.8
v -1.7 0.1 0.7
v -1.6 0.1 0.7
v 1.6 0.1 0.7
v 1.7 0.1 0.7
v -1.8 0.1 0.6
v -1.7 0.1 0.6
v -1.6 0.1 0.6
v 1.6 0.1 0.6
v 1.7 0.1 0.6
v 1.8 0.1 0.6
v -1.8 0.1 0.4
v -1.7 0.1 0.4
v -1.6 0.1 0.4
v 1.6 0.1 0.4
v 1.7 0.1 0.4
v 1.8 0.1 0.4
v -1.7 0.1 0.3
v -1.6 0.1 0.3
v 1.6 0.1 0.3
v 1.7 0.1 0.3
v -1.7 0.1 0.2
v -1.6 0.1 0.2
v 1.6 0.1 0.2
v 1.7 0.1 0.2
v -1.8 0.1 0.1
v -1.7 0.1 0.1
v -1.6 0.1 0.1
v 1.6 0.1 0.1
v 1.7 0.1 0.1
v 1.8 0.1 0.1
v -1.8 0.1 -0.1
v -1.7 0.1 -0.1
v -1.6 0.1 -0.1
v 1.6 0.1 -0.1
v 1.7 0.1 -0.1
v 1.8 0.1 -0.1
v -1.7 0.1 -0.2
v -1.6 0.1 -0.2
v 1.6 0.1 -0.2
v 1.7 0.1 -0.2
v -1.7 0.1 -0.3
v -1.6 0.1 -0.3
v 1.6 0.1 -0.3
v 1.7 0.1 -0.3
v -1.8 0.1 -0.4
v -1.7 0.1 -0.4
v -1.6 0.1 -0.4
v 1.6 0.1 -0.4
v 1.7 0.1 -0.4
v 1.8 0.1 -0.4
v -1.8 0.1 -0.6
v -1.7 0.1 -0.6
v -1.6 0.1 -0.6
v 1.6 0.1 -0.6
v 1.7 0.1 -0.6
v 1.8 0.1 -0.6
v -1.7 0.1 -0.7
v -1.6 0.1 -0.7
v 1.6 0.1 -0.7
v 1.7 0.1 -0.7
v -1.8 0.1 -0.8
v 1.8 0.1 -0.8
v -1.9 0.1 -0.9
v 1.9 0.1 -0.9
v -2 0.2 1
v 2 0.2 1
v -1.9 0.2 0.9
v 1.9 0.2 0.9
v -1.8 0.2 0.8
v 1.8 0.2 0.8
v -1.7 0.2 0.7
v -1.6 0.2 0.7
v 1.6 0.2 0.7
v 1.7 0.2 0.7
v -1.8 0.2 0.6
v -1.7 0.2 0.6
v 1.7 0.2 0.6
v 1.8 0.2 0.6
v -1.8 0.2 0.4
v -1.7 0.2 0.4
v 1.7 0.2 0.4
v 1.8 0.2 0.4
v -1.7 0.2 0.3
v -1.6 0.2 0.3
v 1.6 0.2 0.3
v 1.7 0.2 0.3
v -1.7 0.2 0.2
v -1.6 0.2 0.2
v 1.6 0.2 0.2
v 1.7 0.2 0.2
v -1.8 0.2 0.1
v -1.7 0.2 0.1
v 1.7 0.2 0.1
v 1.8 0.2 0.1
v -1.8 0.2 -0.1
v -1.7 0.2 -0.1
v 1.7 0.2 -0.1
v 1.8 0.2 -0.1
v -1.7 0.2 -0.2
v -1.6 0.2 -0.2
v 1.6 0.2 -0.2
v 1.7 0.2 -0.2
v -1.7 0.2 -0.3
v -1.6 0.2 -0.3
v 1.6 0.2 -0.3
v 1.7 0.2 -0.3
v -1.8 0.2 -0.4
v -1.7 0.2 -0.4
v 1.7 0.2 -0.4
v 1.8 0.2 -0.4
v -1.8 0.2 -0.6
v -1.7 0.2 -0.6
v 1.7 0.2 -0.6
v 1.8 0.2 -0.6
v -1.7 0.2 -0.7
v -1.6 0.2 -0.7
v 1.6 0.2 -0.7
v 1.7 0.2 -0.7
v -1.8 0.2 -0.8
v 1.8 0.2 -0.8
v -1.9 0.2 -0.9
v 1.9 0.2 -0.9
v -2 0.2 -1
v 2 0.2 -1
v -2 0.3 1
v 2 0.3 1
v -1.9 0.3 0.9
v 1.9 0.3 0.9
v -1.9 0.3 -0.9
v 1.9 0.3 -0.9
v -2 0.3 -1
v 2 0.3 -1

# faces
f 3/4/1 2/4/1 1/4/1
f 4/4/1 2/4/1 3/4/1
f 7/4/1 6/4/1 5/4/1
f 8/4/1 6/4/1 7/4/1
f 21/2/1 10/2/1 9/2/1
f 22/2/1 10/2/1 21/2/1
f 23/2/1 12/2/1 11/2/1
f 24/2/1 12/2/1 23/2/1
f 25/2/1 14/2/1 13/2/1
f 26/2/1 14/2/1 25/2/1
f 27/2/1 16/2/1 15/2/1
f 28/2/1 16/2/1 27/2/1
f 29/2/1 18/2/1 17/2/1
f 30/2/1 18/2/1 29/2/1
f 31/2/1 20/2/1 19/2/1
f 32/2/1 20/2/1 31/2/1
f 39/2/1 34/2/1 33/2/1
f 40/2/1 34/2/1 39/2/1
f 41/2/1 36/2/1 35/2/1
f 42/2/1 36/2/1 41/2/1
f 43/2/1 38/2/1 37/2/1
f 44/2/1 38/2/1 43/2/1
f 53/4/1 46/4/1 45/4/1
f 54/4/1 46/4/1 53/4/1
f 55/4/1 48/4/1 47/4/1
f 56/4/1 48/4/1 55/4/1
f 57/4/1 50/4/1 49/4/1
f 58/4/1 50/4/1 57/4/1
f 59/4/1 52/4/1 51/4/1
f 60/4/1 52/4/1 59/4/1
f 61/4/2 62/4/2 69/4/2
f 69/4/2 62/4/2 70/4/2
f 63/4/2 64/4/2 71/4/2
f 71/4/2 64/4/2 72/4/2
f 65/4/2 66/4/2 73/4/2
f 73/4/2 66/4/2 74/4/2
f 67/4/2 68/4/2 75/4/2
f 75/4/2 68/4/2 76/4/2
f 77/2/2 78/2/2 83/2/2
f 83/2/2 78/2/2 84/2/2
f 79/2/2 80/2/2 85/2/2
f 85/2/2 80/2/2 86/2/2
f 81/2/2 82/2/2 87/2/2
f 87/2/2 82/2/2 88/2/2
f 89/2/2 90/2/2 101/2/2
f 101/2/2 90/2/2 102/2/2
f 91/2/2 92/2/2 103/2/2
f 103/2/2 92/2/2 104/2/2
f 93/2/2 94/2/2 105/2/2
f 105/2/2 94/2/2 106/2/2
f 95/2/2 96/2/2 107/2/2
f 107/2/2 96/2/2 108/2/2
f 97/2/2 98/2/2 109/2/2
f 109/2/2 98/2/2 110/2/2
f 99/2/2 100/2/2 111/2/2
f 111/2/2 100/2/2 112/2/2
f 113/4/2 114/4/2 115/4/2
f 115/4/2 114/4/2 116/4/2
f 117/4/2 118/4/2 119/4/2
f 119/4/2 118/4/2 120/4/2
f 123/4/3 122/4/3 121/4/3
f 124/4/3 122/4/3 123/4/3
f 127/4/3 126/4/3 125/4/3
f 128/4/3 126/4/3 127/4/3
f 131/2/3 130/2/3 129/2/3
f 132/2/3 130/2/3 131/2/3
f 133/1/3 132/1/3 131/1/3
f 134/1/3 132/1/3 133/1/3
f 135/2/3 134/2/3 133/2/3
f 136/2/3 134/2/3 135/2/3
f 139/2/3 138/2/3 137/2/3
f 140/2/3 138/2/3 139/2/3
f 143/2/3 142/2/3 141/2/3
f 144/2/3 142/2/3 143/2/3
f 147/2/3 146/2/3 145/2/3
f 148/2/3 146/2/3 147/2/3
f 151/2/3 150/2/3 149/2/3
f 152/2/3 150/2/3 151/2/3
f 153/1/3 152/1/3 151/1/3
f 154/1/3 152/1/3 153/1/3
f 155/2/3 154/2/3 153/2/3
f 156/2/3 154/2/3 155/2/3
f 159/2/3 158/2/3 157/2/3
f 160/2/3 158/2/3 159/2/3
f 163/2/3 162/2/3 161/2/3
f 164/2/3 162/2/3 163/2/3
f 167/2/3 166/2/3 165/2/3
f 168/2/3 166/2/3 167/2/3
f 171/2/3 170/2/3 169/2/3
f 172/2/3 170/2/3 171/2/3
f 173/1/3 172/1/3 171/1/3
f 174/1/3 172/1/3 173/1/3
f 175/2/3 174/2/3 173/2/3
f 176/2/3 174/2/3 175/2/3
f 179/2/3 178/2/3 177/2/3
f 180/2/3 178/2/3 179/2/3
f 183/2/3 182/2/3 181/2/3
f 184/2/3 182/2/3 183/2/3
f 187/2/3 186/2/3 185/2/3
f 188/2/3 186/2/3 187/2/3
f 191/4/3 190/4/3 189/4/3
f 192/4/3 190/4/3 191/4/3
f 193/4/4 194/4/4 195/4/4
f 195/4/4 194/4/4 196/4/4
f 197/2/4 198/2/4 199/2/4
f 199/2/4 198/2/4 200/2/4
f 201/2/4 202/2/4 203/2/4
f 203/2/4 202/2/4 204/2/4
f 205/2/4 206/2/4 207/2/4
f 207/2/4 206/2/4 208/2/4
f 209/2/4 210/2/4 211/2/4
f 211/2/4 210/2/4 212/2/4
f 211/1/4 212/1/4 213/1/4
f 213/1/4 212/1/4 214/1/4
f 213/2/4 214/2/4 215/2/4
f 215/2/4 214/2/4 216/2/4
f 217/2/4 218/2/4 219/2/4
f 219/2/4 218/2/4 220/2/4
f 221/2/4 222/2/4 223/2/4
f 223/2/4 222/2/4 224/2/4
f 225/2/4 226/2/4 227/2/4
f 227/2/4 226/2/4 228/2/4
f 229/2/4 230/2/4 231/2/4
f 231/2/4 230/2/4 232/2/4
f 231/1/4 232/1/4 233/1/4
f 233/1/4 232/1/4 234/1/4
f 233/2/4 234/2/4 235/2/4
f 235/2/4 234/2/4 236/2/4
f 237/2/4 238/2/4 239/2/4
f 239/2/4 238/2/4 240/2/4
f 241/2/4 242/2/4 243/2/4
f 243/2/4 242/2/4 244/2/4
f 245/2/4 246/2/4 247/2/4
f 247/2/4 246/2/4 248/2/4
f 249/2/4 250/2/4 251/2/4
f 251/2/4 250/2/4 252/2/4
f 251/1/4 252/1/4 253/1/4
f 253/1/4 252/1/4 254/1/4
f 253/2/4 254/2/4 255/2/4
f 255/2/4 254/2/4 256/2/4
f 257/4/4 258/4/4 259/4/4
f 259/4/4 258/4/4 260/4/4
f 261/4/4 262/4/4 263/4/4
f 263/4/4 262/4/4 264/4/4
f 267/2/5 266/2/5 265/2/5
f 268/2/5 266/2/5 267/2/5
f 271/2/5 270/2/5 269/2/5
f 272/2/5 270/2/5 271/2/5
f 275/2/5 274/2/5 273/2/5
f 276/2/5 274/2/5 275/2/5
f 279/4/5 278/4/5 277/4/5
f 280/4/5 278/4/5 279/4/5
f 285/4/5 279/4/5 277/4/5
f 286/2/5 282/2/5 281/2/5
f 287/1/5 283/1/5 282/1/5
f 287/2/5 282/2/5 286/2/5
f 288/2/5 284/2/5 283/2/5
f 288/1/5 283/1/5 287/1/5
f 289/2/5 284/2/5 288/2/5
f 290/4/5 278/4/5 280/4/5
f 291/2/5 287/2/5 286/2/5
f 291/4/5 285/4/5 277/4/5
f 291/2/5 286/2/5 285/2/5
f 292/2/5 287/2/5 291/2/5
f 293/2/5 287/2/5 292/2/5
f 294/2/5 290/2/5 289/2/5
f 294/2/5 289/2/5 288/2/5
f 295/2/5 290/2/5 294/2/5
f 296/4/5 278/4/5 290/4/5
f 296/2/5 290/2/5 295/2/5
f 297/2/5 293/2/5 292/2/5
f 298/1/5 294/1/5 293/1/5
f 298/2/5 293/2/5 297/2/5
f 299/2/5 295/2/5 294/2/5
f 299/1/5 294/1/5 298/1/5
f 300/2/5 295/2/5 299/2/5
f 305/4/5 291/4/5 277/4/5
f 306/2/5 302/2/5 301/2/5
f 307/1/5 303/1/5 302/1/5
f 307/2/5 302/2/5 306/2/5
f 308/2/5 304/2/5 303/2/5
f 308/1/5 303/1/5 307/1/5
f 309/2/5 304/2/5 308/2/5
f 310/4/5 278/4/5 296/4/5
f 311/2/5 307/2/5 306/2/5
f 311/4/5 305/4/5 277/4/5
f 311/2/5 306/2/5 305/2/5
f 312/2/5 307/2/5 311/2/5
f 313/2/5 307/2/5 312/2/5
f 314/2/5 309/2/5 308/2/5
f 314/2/5 310/2/5 309/2/5
f 315/2/5 310/2/5 314/2/5
f 316/4/5 278/4/5 310/4/5
f 316/2/5 310/2/5 315/2/5
f 317/2/5 313/2/5 312/2/5
f 318/1/5 314/1/5 313/1/5
f 318/2/5 313/2/5 317/2/5
f 319/2/5 315/2/5 314/2/5
f 319/1/5 314/1/5 318/1/5
f 320/2/5 315/2/5 319/2/5
f 325/4/5 311/4/5 277/4/5
f 326/2/5 322/2/5 321/2/5
f 327/1/5 323/1/5 322/1/5
f 327/2/5 322/2/5 326/2/5
f 328/2/5 324/2/5 323/2/5
f 328/1/5 323/1/5 327/1/5
f 329/2/5 324/2/5 328/2/5
f 330/4/5 278/4/5 316/4/5
f 331/2/5 327/2/5 326/2/5
f 331/4/5 325/4/5 277/4/5
f 331/2/5 326/2/5 325/2/5
f 332/2/5 327/2/5 331/2/5
f 333/2/5 327/2/5 332/2/5
f 334/2/5 329/2/5 328/2/5
f 334/2/5 330/2/5 329/2/5
f 335/2/5 330/2/5 334/2/5
f 336/4/5 278/4/5 330/4/5
f 336/2/5 330/2/5 335/2/5
f 337/2/5 333/2/5 332/2/5
f 338/1/5 334/1/5 333/1/5
f 338/2/5 333/2/5 337/2/5
f 339/2/5 335/2/5 334/2/5
f 339/1/5 334/1/5 338/1/5
f 340/2/5 335/2/5 339/2/5
f 341/4/5 331/4/5 277/4/5
f 342/4/5 278/4/5 336/4/5
f 343/4/5 341/4/5 277/4/5
f 343/4/5 342/4/5 341/4/5
f 344/4/5 278/4/5 342/4/5
f 344/4/5 342/4/5 343/4/5
f 347/4/5 346/4/5 345/4/5
f 348/4/5 346/4/5 347/4/5
f 351/3/5 350/3/5 349/3/5
f 352/3/5 350/3/5 351/3/5
f 353/3/5 350/3/5 352/3/5
f 354/3/5 350/3/5 353/3/5
f 355/3/5 351/3/5 349/3/5
f 356/3/5 351/3/5 355/3/5
f 357/3/5 350/3/5 354/3/5
f 358/3/5 350/3/5 357/3/5
f 363/3/5 360/3/5 359/3/5
f 366/3/5 362/3/5 361/3/5
f 367/3/5 365/3/5 364/3/5
f 367/3/5 366/3/5 365/3/5
f 367/3/5 363/3/5 359/3/5
f 367/3/5 364/3/5 363/3/5
f 368/3/5 366/3/5 367/3/5
f 369/3/5 366/3/5 368/3/5
f 370/3/5 362/3/5 366/3/5
f 370/3/5 366/3/5 369/3/5
f 371/3/5 367/3/5 359/3/5
f 372/3/5 367/3/5 371/3/5
f 373/3/5 362/3/5 370/3/5
f 374/3/5 362/3/5 373/3/5
f 379/3/5 376/3/5 375/3/5
f 382/3/5 378/3/5 377/3/5
f 383/3/5 381/3/5 380/3/5
f 383/3/5 382/3/5 381/3/5
f 383/3/5 379/3/5 375/3/5
f 383/3/5 380/3/5 379/3/5
f 384/3/5 382/3/5 383/3/5
f 385/3/5 382/3/5 384/3/5
f 386/3/5 378/3/5 382/3/5
f 386/3/5 382/3/5 385/3/5
f 387/3/5 383/3/5 375/3/5
f 388/3/5 383/3/5 387/3/5
f 389/3/5 378/3/5 386/3/5
f 390/3/5 378/3/5 389/3/5
f 395/3/5 392/3/5 391/3/5
f 398/3/5 394/3/5 393/3/5
f 399/3/5 397/3/5 396/3/5
f 399/3/5 398/3/5 397/3/5
f 399/3/5 395/3/5 391/3/5
f 399/3/5 396/3/5 395/3/5
f 400/3/5 394/3/5 398/3/5
f 400/3/5 398/3/5 399/3/5
f 401/4/5 347/4/5 345/4/5
f 402/4/5 346/4/5 348/4/5
f 403/4/5 401/4/5 345/4/5
f 403/4/5 402/4/5 401/4/5
f 404/4/5 346/4/5 402/4/5
f 404/4/5 402/4/5 403/4/5
f 405/4/6 406/4/6 407/4/6
f 407/4/6 406/4/6 408/4/6
f 405/4/6 407/4/6 409/4/6
f 407/3/6 408/3/6 409/3/6
f 408/4/6 406/4/6 410/4/6
f 409/3/6 408/3/6 410/3/6
f 405/4/6 409/4/6 411/4/6
f 409/4/6 410/4/6 411/4/6
f 410/4/6 406/4/6 412/4/6
f 411/4/6 410/4/6 412/4/6
